<svg
  xmlns="http://www.w3.org/2000/svg"
  height="48px"
  width="48px"
  viewBox="0 -960 960 960"
>
  <!-- 白いリング -->
  <circle
    cx="480"
    cy="-480"
    r="450"
    fill="#2D3038"
    stroke="#FFF4E3"
    stroke-width="40"
  />

  <!-- 外側ピン本体（さらに小さめにスケール） -->
  <g transform="translate(480,-480) scale(0.75) translate(-480,480)">
    <path
      d="M40-120v-470h60v80h110v-330h60v80h100v-80h60v80h100v-80h60v80h100v-80h60v330h110v-80h60v470H570v-120q0-38-26-64t-64-26q-38 0-64 26t-26 64v120H40Zm60-60h230v-60q0-63 43.5-106.5T480-390q63 0 106.5 43.5T630-240v60h230v-270H690v-250H270v250H100v270Zm270-310h60v-110h-60v110Zm160 0h60v-110h-60v110Zm-50 50Z"
      fill="#D98B3A"
    />
  </g>
</svg>